Coordinates
version=1
nRows=14
nColumns=24
inDegrees=yes

Units are S.I. units (second, meters, Newtons, ...)
Angles are in degrees.

endheader
time	pelvis_tilt	pelvis_list	pelvis_rotation	pelvis_tx	pelvis_ty	pelvis_tz	hip_flexion_r	hip_adduction_r	hip_rotation_r	knee_angle_r	ankle_angle_r	subtalar_angle_r	mtp_angle_r	hip_flexion_l	hip_adduction_l	hip_rotation_l	knee_angle_l	ankle_angle_l	subtalar_angle_l	mtp_angle_l	lumbar_extension	lumbar_bending	lumbar_rotation
      2.86500000	     -8.72072834	      6.59177904	    358.10274220	      0.64724016	      1.37290958	     -1.04609867	      8.14035493	     -5.59014723	      2.83886722	    -40.72315518	     -4.01210818	     -5.17461197	     23.26524546	     24.74627953	      9.56228301	      0.75584675	     -9.74100510	    -11.69366421	     -9.13895500	     23.75326029	     -8.28553649	     -1.93289058	      5.09512143
      2.87000000	     -8.58293849	      6.74515131	    358.08100715	      0.65240025	      1.37337387	     -1.04687178	      8.82794130	     -5.87044571	      2.86307836	    -42.27998156	     -5.64043085	     -5.28831758	     24.58172000	     24.40711070	      9.84163753	      1.07778274	     -9.97208692	    -11.48914605	     -9.51700628	     22.91338490	     -8.38394549	     -2.09320803	      5.08955928
      2.87500000	     -8.54620583	      6.90664016	    358.03546755	      0.65746774	      1.37364347	     -1.04751031	      9.65438062	     -6.13374972	      2.98024629	    -43.84860969	     -6.89275017	     -5.04709441	     25.95419511	     24.15532553	     10.08498874	      1.17256458	    -10.13773144	    -11.26598805	     -9.63450217	     22.38257487	     -8.36106327	     -2.29197359	      5.11825871
      2.88000000	     -8.40403935	      7.05459435	    358.00805965	      0.66244256	      1.37399033	     -1.04822016	     10.31914127	     -6.40412034	      3.05241018	    -45.32856961	     -7.29241563	     -4.50406706	     27.34194428	     23.76148699	     10.32983835	      1.17616479	    -10.23786906	    -11.01304065	     -9.68910683	     21.81607761	     -8.45482304	     -2.45430584	      5.04469721
      2.88500000	     -8.26782889	      7.21034698	    358.03523139	      0.66755357	      1.37425281	     -1.04902184	     10.96884955	     -6.75923340	      2.96176547	    -46.78966373	     -6.62113615	     -3.31326385	     28.09625242	     23.32465073	     10.61032142	      1.18078978	    -10.26373126	    -10.76567225	     -9.80243240	     21.26944287	     -8.52061135	     -2.59795844	      4.85766677
      2.89000000	     -8.07886022	      7.25425505	    358.03790207	      0.67253351	      1.37472992	     -1.04974022	     11.44036545	     -6.89727867	      3.07706536	    -47.98128402	     -5.80835706	     -2.50224203	     28.08359071	     22.86764098	     10.74460058	      0.92193511	    -10.38315110	    -10.01043556	     -8.87549957	     20.49349242	     -8.66835498	     -2.63063090	      4.74126063
      2.89500000	     -7.95228796	      7.30181480	    358.04337341	      0.67754412	      1.37509300	     -1.05057120	     11.98803470	     -7.07355146	      3.11311427	    -49.12443163	     -4.97303585	     -1.56002322	     27.90270044	     22.44188212	     10.88752261	      0.71505304	    -10.40267600	     -9.72989141	     -8.59082478	     20.35496060	     -8.73206879	     -2.65455890	      4.60394799
      2.90000000	     -7.78379153	      7.29074726	    357.96205110	      0.68251758	      1.37570242	     -1.05124247	     12.48720803	     -7.10017420	      3.32540142	    -50.11146672	     -4.49918969	     -0.92631483	     28.15418089	     21.92082725	     10.92563123	      0.45761709	    -10.30984741	     -9.58002927	     -8.46077421	     20.37837244	     -8.85720320	     -2.65072952	      4.57005706
      2.90500000	     -7.64769508	      7.12780221	    357.93087037	      0.68738057	      1.37640693	     -1.05191421	     12.94436375	     -6.91816106	      3.51051042	    -50.91636888	     -4.18156774	     -0.40402850	     28.33687441	     21.43498154	     10.80691364	      0.28009156	    -10.24472630	     -9.29653658	     -8.15810429	     20.43283300	     -8.95477049	     -2.48765058	      4.55070462
      2.91000000	     -7.52497859	      6.98640358	    357.87950906	      0.69216101	      1.37709104	     -1.05258108	     13.43996444	     -6.76835655	      3.66781857	    -51.71515911	     -3.88587954	     -0.09588768	     28.57459635	     20.95381042	     10.69915693	      0.09527451	    -10.14240825	     -9.04369534	     -7.87534134	     20.51269378	     -9.02247125	     -2.31845501	      4.53974006
      2.91500000	     -7.44896206	      6.83316942	    357.81951809	      0.69691055	      1.37773430	     -1.05320282	     14.00828179	     -6.59750711	      3.84341334	    -52.48557004	     -3.54174442	      0.14273454	     28.75059382	     20.53203306	     10.57382430	     -0.07042215	    -10.05810706	     -8.85452839	     -7.66919971	     20.56996896	     -9.07140017	     -2.11851202	      4.54067873
      2.92000000	     -7.41058040	      6.67780798	    357.78234356	      0.70154471	      1.37834033	     -1.05373343	     14.64478964	     -6.42913472	      3.93839089	    -53.28402175	     -3.00942543	      0.01894515	     28.79547967	     20.19352364	     10.44434847	     -0.24773403	    -10.04247369	     -8.66956056	     -7.35087171	     20.64053562	     -9.08714561	     -1.94796119	      4.50577621
      2.92500000	     -7.34961641	      6.52608792	    357.81973452	      0.70617871	      1.37896375	     -1.05449686	     15.21383936	     -6.29880083	      3.91435401	    -54.00059423	     -2.15173395	      0.29209481	     28.62600208	     19.85649594	     10.37776929	     -0.24816896	    -10.10551868	     -8.67248133	     -7.27178908	     19.59283739	     -9.12377761	     -1.75572703	      4.36062172
      2.93000000	     -7.28847755	      6.44220520	    357.78472011	      0.71088437	      1.37964713	     -1.05506490	     15.79397001	     -6.22249175	      3.98952817	    -54.60441673	     -1.55602712	      0.58591461	     28.56679100	     19.53519893	     10.33923640	     -0.42854248	    -10.22550403	     -7.89813687	     -6.56534888	     19.07315577	     -9.14604172	     -1.64819380	      4.28607614
